<svg width="80" height="60" viewBox="0 0 80 60" fill="none" xmlns="http://www.w3.org/2000/svg">
<path d="M52 40H58C59 40 60 39 60 38V17C60 16 59 15 58 15H52C51 15 50 16 50 17V38C50 39 51 40 52 40ZM67 40H73C74 40 75 39 75 38V2C75 1 74 0 73 0H67C66 0 65 1 65 2V38C65 39 66 40 67 40ZM22 40H28C29 40 30 39 30 38V27C30 26 29 25 28 25H22C21 25 20 26 20 27V38C20 39 21 40 22 40ZM37 40H43C44 40 45 39 45 38V7C45 6 44 5 43 5H37C36 5 35 6 35 7V38C35 39 36 40 37 40ZM77.5 50H10V2.5C10 1.11875 8.88125 0 7.5 0H2.5C1.11875 0 0 1.11875 0 2.5V55C0 57.7609 2.23906 60 5 60H77.5C78.8812 60 80 58.8812 80 57.5V52.5C80 51.1188 78.8812 50 77.5 50Z" fill="#F86F03"/>
</svg>
