<svg width="50" height="80" viewBox="0 0 50 80" fill="none" xmlns="http://www.w3.org/2000/svg">
<path d="M42.5 0H7.5C3.35938 0 0 3.35938 0 7.5V72.5C0 76.6406 3.35938 80 7.5 80H42.5C46.6406 80 50 76.6406 50 72.5V7.5C50 3.35938 46.6406 0 42.5 0ZM25 75C22.2344 75 20 72.7656 20 70C20 67.2344 22.2344 65 25 65C27.7656 65 30 67.2344 30 70C30 72.7656 27.7656 75 25 75ZM42.5 58.125C42.5 59.1562 41.6562 60 40.625 60H9.375C8.34375 60 7.5 59.1562 7.5 58.125V9.375C7.5 8.34375 8.34375 7.5 9.375 7.5H40.625C41.6562 7.5 42.5 8.34375 42.5 9.375V58.125Z" fill="#F86F03"/>
</svg>
