<svg width="80" height="64" viewBox="0 0 80 64" fill="none" xmlns="http://www.w3.org/2000/svg">
<path d="M31.8788 32.7062C32.66 33.4875 33.9263 33.4875 34.7075 32.7062L36.1213 31.2925C36.9025 30.5112 36.9025 29.245 36.1213 28.4638L31.6562 24L36.12 19.535C36.9012 18.7538 36.9012 17.4875 36.12 16.7063L34.7062 15.2925C33.925 14.5112 32.6587 14.5112 31.8775 15.2925L24.585 22.585C23.8037 23.3662 23.8037 24.6325 24.585 25.4137L31.8788 32.7062ZM43.88 31.2938L45.2938 32.7075C46.075 33.4888 47.3413 33.4888 48.1225 32.7075L55.415 25.415C56.1963 24.6338 56.1963 23.3675 55.415 22.5863L48.1225 15.2937C47.3413 14.5125 46.075 14.5125 45.2938 15.2937L43.88 16.7075C43.0988 17.4888 43.0988 18.755 43.88 19.5362L48.3438 24L43.88 28.465C43.0988 29.2463 43.0988 30.5125 43.88 31.2938ZM78 52H47.6925C47.6 54.4762 45.8538 56 43.6 56H36C33.6637 56 31.8725 53.8162 31.9038 52H2C0.9 52 0 52.9 0 54V56C0 60.4 3.6 64 8 64H72C76.4 64 80 60.4 80 56V54C80 52.9 79.1 52 78 52ZM72 6C72 2.7 69.3 0 66 0H14C10.7 0 8 2.7 8 6V48H72V6ZM64 40H16V8H64V40Z" fill="#F86F03"/>
</svg>
